<svg width="14" height="18" viewBox="0 0 14 18" fill="none" xmlns="http://www.w3.org/2000/svg">
<path d="M6.99896 17.668H12.8994C13.5069 17.668 14 17.1749 14 16.5674V2.25531V1.10061C14 0.49309 13.5069 0 12.8994 0H6.99896H5.037V0.364096C5.04114 0.401546 5.04325 0.441076 5.04325 0.480606V2.87948V3.49532C5.04325 4.35042 4.34834 5.04533 3.49324 5.04533H2.8774H0.478526C0.447318 5.04533 0.414029 5.04325 0.382821 5.04117H0V16.5674C0 17.1749 0.49309 17.668 1.10061 17.668H2.30733H6.99896ZM7.22158 13.9272H3.37465C3.08753 13.9272 2.85451 13.6941 2.85451 13.407C2.85451 13.1199 3.08753 12.8869 3.37465 12.8869H7.22366C7.51078 12.8869 7.7438 13.1199 7.7438 13.407C7.7438 13.6941 7.50869 13.9272 7.22158 13.9272ZM11.0706 11.2724H3.37465C3.08753 11.2724 2.85451 11.0394 2.85451 10.7523C2.85451 10.4652 3.08753 10.2322 3.37465 10.2322H11.0706C11.3577 10.2322 11.5907 10.4652 11.5907 10.7523C11.5907 11.0394 11.3577 11.2724 11.0706 11.2724ZM3.37465 7.41299H11.0706C11.3577 7.41299 11.5907 7.64601 11.5907 7.93313C11.5907 8.22024 11.3577 8.45326 11.0706 8.45326H3.37465C3.08753 8.45326 2.85451 8.22024 2.85451 7.93313C2.85451 7.64601 3.08753 7.41299 3.37465 7.41299Z" fill="#0077B7"/>
<path d="M0.478527 4.42115H3.49324C3.49532 4.42115 3.49948 4.42115 3.50156 4.42115C4.00505 4.41699 4.41284 4.0092 4.417 3.50571C4.417 3.50363 4.417 3.49947 4.417 3.49739V0.480594C4.417 0.201801 4.18814 0.0166321 3.95098 0.0166321C3.83655 0.0166321 3.72212 0.058243 3.62642 0.153948L0.149801 3.63054C-0.141476 3.92182 0.0644982 4.42115 0.478527 4.42115Z" fill="#0077B7"/>
</svg>
