<svg width="10" height="11" viewBox="0 0 10 11" fill="none" xmlns="http://www.w3.org/2000/svg">
<path d="M5.0011 0.743866C2.2411 0.743866 0.00109863 2.98387 0.00109863 5.74387C0.00109863 8.50387 2.2411 10.7439 5.0011 10.7439C7.7611 10.7439 10.0011 8.50387 10.0011 5.74387C10.0011 2.98387 7.7611 0.743866 5.0011 0.743866ZM4.5011 9.70887C2.5261 9.46387 1.0011 7.78387 1.0011 5.74387C1.0011 5.43387 1.0411 5.13887 1.1061 4.84887L3.5011 7.24387V7.74387C3.5011 8.29387 3.9511 8.74387 4.5011 8.74387V9.70887ZM7.9511 8.43887C7.8211 8.03387 7.4511 7.74387 7.0011 7.74387H6.5011V6.24387C6.5011 5.96887 6.2761 5.74387 6.0011 5.74387H3.0011V4.74387H4.0011C4.2761 4.74387 4.5011 4.51887 4.5011 4.24387V3.24387H5.5011C6.0511 3.24387 6.5011 2.79387 6.5011 2.24387V2.03887C7.9661 2.63387 9.0011 4.06887 9.0011 5.74387C9.0011 6.78387 8.6011 7.72887 7.9511 8.43887Z" fill="#818181"/>
</svg>
