<svg width="23" height="21" viewBox="0 0 23 21" fill="none" xmlns="http://www.w3.org/2000/svg">
<path d="M4.32822 8.4548V20.4548H0.328217V8.4548H4.32822ZM8.32822 20.4548C7.79778 20.4548 7.28908 20.2441 6.914 19.869C6.53893 19.4939 6.32822 18.9852 6.32822 18.4548V8.4548C6.32822 7.9048 6.54822 7.4048 6.91822 7.0448L13.4982 0.454803L14.5582 1.5148C14.8282 1.7848 14.9982 2.1548 14.9982 2.5648L14.9682 2.8848L14.0182 7.4548H20.3282C20.8587 7.4548 21.3674 7.66552 21.7424 8.04059C22.1175 8.41566 22.3282 8.92437 22.3282 9.4548V11.4548C22.3282 11.7148 22.2782 11.9548 22.1882 12.1848L19.1682 19.2348C18.8682 19.9548 18.1582 20.4548 17.3282 20.4548H8.32822ZM8.32822 18.4548H17.3582L20.3282 11.4548V9.4548H11.5382L12.6682 4.1348L8.32822 8.4848V18.4548Z" fill="#818181"/>
</svg>
