<svg width="27" height="28" viewBox="0 0 27 28" fill="none" xmlns="http://www.w3.org/2000/svg">
<rect x="0.0688477" y="0.700134" width="26.9321" height="27.0289" rx="1" fill="#0077B7"/>
<path d="M8.56852 23.2846H5.01807V10.0377H8.56852V23.2846ZM4.80994 6.60972C4.80994 6.07919 4.98542 5.64253 5.33638 5.29973C5.69551 4.95692 6.18115 4.78552 6.79329 4.78552C7.39728 4.78552 7.87883 4.95692 8.23796 5.29973C8.59709 5.64253 8.77665 6.07919 8.77665 6.60972C8.77665 7.14841 8.59301 7.58916 8.22572 7.93196C7.86659 8.27476 7.38912 8.44616 6.79329 8.44616C6.19747 8.44616 5.71591 8.27476 5.34863 7.93196C4.9895 7.58916 4.80994 7.14841 4.80994 6.60972Z" fill="white"/>
<path d="M14.7512 10.0377L14.8614 11.5681C15.8082 10.3846 17.0774 9.79289 18.6689 9.79289C20.0728 9.79289 21.1175 10.2051 21.8031 11.0294C22.4887 11.8538 22.8397 13.0862 22.856 14.7268V23.2846H19.3178V14.8125C19.3178 14.0616 19.1546 13.5188 18.8281 13.1842C18.5016 12.8414 17.9589 12.67 17.1998 12.67C16.204 12.67 15.4572 13.0944 14.9593 13.9432V23.2846H11.4211V10.0377H14.7512Z" fill="white"/>
</svg>
