<svg width="21" height="17" viewBox="0 0 21 17" fill="none" xmlns="http://www.w3.org/2000/svg">
<path d="M11.4422 4.90288V1.84888C11.4423 1.65113 11.501 1.45783 11.6108 1.29342C11.7207 1.12901 11.8769 1.00087 12.0596 0.9252C12.2423 0.84953 12.4433 0.829727 12.6373 0.868294C12.8312 0.906862 13.0094 1.00207 13.1492 1.14188L20.1492 8.14188C20.2422 8.23467 20.3159 8.34487 20.3662 8.46618C20.4165 8.5875 20.4424 8.71754 20.4424 8.84888C20.4424 8.98021 20.4165 9.11026 20.3662 9.23157C20.3159 9.35289 20.2422 9.46309 20.1492 9.55588L13.1492 16.5559C13.0096 16.6962 12.8314 16.7918 12.6373 16.8307C12.4431 16.8695 12.2419 16.8498 12.059 16.7741C11.8761 16.6983 11.7198 16.5699 11.61 16.4052C11.5002 16.2405 11.4418 16.0468 11.4422 15.8489V12.7529C11.1582 12.7329 10.8772 12.7239 10.5992 12.7239C5.17324 12.7239 2.36024 16.2959 2.23724 16.4539C2.11118 16.6206 1.93585 16.7435 1.7361 16.805C1.53635 16.8666 1.32229 16.8637 1.12424 16.7969C0.925573 16.7302 0.752853 16.6029 0.63048 16.4328C0.508106 16.2627 0.442261 16.0584 0.442242 15.8489C0.442242 6.72488 8.52824 5.16788 11.4422 4.90288ZM10.5992 10.7239C11.2462 10.7239 11.9112 10.7689 12.5742 10.8569C12.8145 10.8891 13.0349 11.0074 13.1946 11.1898C13.3542 11.3723 13.4422 11.6065 13.4422 11.8489V13.4349L18.0282 8.84888L13.4422 4.26288V5.84888C13.4422 6.40088 12.9712 6.84888 12.4202 6.84888C11.5102 6.84888 4.30624 7.04988 2.74124 13.2739C4.39524 12.0559 7.02224 10.7239 10.5992 10.7239Z" fill="#818181"/>
</svg>
